<mxfile host="app.diagrams.net" agent="Mozilla/5.0 (Windows NT 10.0; Win64; x64) AppleWebKit/537.36 (KHTML, like Gecko) Chrome/131.0.0.0 Safari/537.36" version="26.0.5" pages="2">
  <diagram name="L3 Starlink Circuit" id="Qg7m0SF68Fr3Q486ZbVp">
    <mxGraphModel dx="1434" dy="746" grid="1" gridSize="10" guides="1" tooltips="1" connect="1" arrows="1" fold="1" page="1" pageScale="1" pageWidth="850" pageHeight="1100" math="0" shadow="0">
      <root>
        <mxCell id="0" />
        <mxCell id="1" parent="0" />
        <mxCell id="-uE5Le_ZGrrqWHCV-Scj-50" value="" style="rounded=1;whiteSpace=wrap;html=1;fillColor=#e1d5e7;strokeColor=#9673a6;" parent="1" vertex="1">
          <mxGeometry x="120" y="780" width="600" height="230" as="geometry" />
        </mxCell>
        <mxCell id="-uE5Le_ZGrrqWHCV-Scj-32" value="" style="endArrow=none;html=1;rounded=0;textShadow=0;strokeWidth=10;fillColor=#fff2cc;strokeColor=#d6b656;entryDx=0;entryDy=0;entryPerimeter=0;exitX=0.5;exitY=0;exitDx=0;exitDy=0;exitPerimeter=0;" parent="1" source="-uE5Le_ZGrrqWHCV-Scj-38" edge="1">
          <mxGeometry width="50" height="50" relative="1" as="geometry">
            <mxPoint x="420" y="800" as="sourcePoint" />
            <mxPoint x="384.845652173913" y="725" as="targetPoint" />
          </mxGeometry>
        </mxCell>
        <mxCell id="-uE5Le_ZGrrqWHCV-Scj-33" value="" style="endArrow=none;html=1;rounded=0;textShadow=0;strokeWidth=10;fillColor=#fff2cc;strokeColor=#d6b656;" parent="1" edge="1">
          <mxGeometry width="50" height="50" relative="1" as="geometry">
            <mxPoint x="384.4966666666668" y="695" as="sourcePoint" />
            <mxPoint x="384.72" y="625" as="targetPoint" />
          </mxGeometry>
        </mxCell>
        <mxCell id="-uE5Le_ZGrrqWHCV-Scj-34" value="INTERNAL" style="text;html=1;align=center;verticalAlign=middle;resizable=0;points=[];autosize=1;strokeColor=none;fillColor=none;" parent="1" vertex="1">
          <mxGeometry x="340.5" y="695" width="80" height="30" as="geometry" />
        </mxCell>
        <mxCell id="-uE5Le_ZGrrqWHCV-Scj-37" value="VLAN_2902" style="text;html=1;align=center;verticalAlign=middle;resizable=0;points=[];autosize=1;strokeColor=none;fillColor=none;" parent="1" vertex="1">
          <mxGeometry x="409.5" y="695" width="90" height="30" as="geometry" />
        </mxCell>
        <mxCell id="-uE5Le_ZGrrqWHCV-Scj-29" value="" style="endArrow=none;html=1;rounded=0;textShadow=0;strokeWidth=10;fillColor=#fff2cc;strokeColor=#d6b656;entryDx=0;entryDy=0;entryPerimeter=0;" parent="1" edge="1">
          <mxGeometry width="50" height="50" relative="1" as="geometry">
            <mxPoint x="389.5" y="570" as="sourcePoint" />
            <mxPoint x="389.845652173913" y="500" as="targetPoint" />
          </mxGeometry>
        </mxCell>
        <mxCell id="-uE5Le_ZGrrqWHCV-Scj-30" value="" style="endArrow=none;html=1;rounded=0;textShadow=0;strokeWidth=10;fillColor=#fff2cc;strokeColor=#d6b656;" parent="1" edge="1">
          <mxGeometry width="50" height="50" relative="1" as="geometry">
            <mxPoint x="389.4966666666668" y="470" as="sourcePoint" />
            <mxPoint x="389.72" y="400" as="targetPoint" />
          </mxGeometry>
        </mxCell>
        <mxCell id="-uE5Le_ZGrrqWHCV-Scj-31" value="INTERNAL" style="text;html=1;align=center;verticalAlign=middle;resizable=0;points=[];autosize=1;strokeColor=none;fillColor=none;" parent="1" vertex="1">
          <mxGeometry x="345.5" y="470" width="80" height="30" as="geometry" />
        </mxCell>
        <mxCell id="-uE5Le_ZGrrqWHCV-Scj-1" value="" style="fontColor=#0066CC;verticalAlign=top;verticalLabelPosition=bottom;labelPosition=center;align=center;html=1;outlineConnect=0;fillColor=#CCCCCC;strokeColor=#6881B3;gradientColor=none;gradientDirection=north;strokeWidth=2;shape=mxgraph.networks.satellite_dish;" parent="1" vertex="1">
          <mxGeometry x="380" y="100" width="90" height="100" as="geometry" />
        </mxCell>
        <mxCell id="-uE5Le_ZGrrqWHCV-Scj-2" value="Internet" style="html=1;outlineConnect=0;fillColor=#CCCCCC;strokeColor=#6881B3;gradientColor=none;gradientDirection=north;strokeWidth=2;shape=mxgraph.networks.cloud;fontColor=#ffffff;" parent="1" vertex="1">
          <mxGeometry x="380" y="10" width="90" height="50" as="geometry" />
        </mxCell>
        <mxCell id="-uE5Le_ZGrrqWHCV-Scj-3" value="" style="endArrow=none;dashed=1;html=1;dashPattern=1 3;strokeWidth=2;rounded=0;entryX=0.5;entryY=1;entryDx=0;entryDy=0;entryPerimeter=0;" parent="1" source="-uE5Le_ZGrrqWHCV-Scj-1" target="-uE5Le_ZGrrqWHCV-Scj-2" edge="1">
          <mxGeometry width="50" height="50" relative="1" as="geometry">
            <mxPoint x="400" y="310" as="sourcePoint" />
            <mxPoint x="450" y="260" as="targetPoint" />
          </mxGeometry>
        </mxCell>
        <mxCell id="-uE5Le_ZGrrqWHCV-Scj-4" value="HQ Dish" style="text;html=1;align=center;verticalAlign=middle;resizable=0;points=[];autosize=1;strokeColor=none;fillColor=none;fontStyle=1;fontSize=18;" parent="1" vertex="1">
          <mxGeometry x="490" y="135" width="90" height="40" as="geometry" />
        </mxCell>
        <mxCell id="-uE5Le_ZGrrqWHCV-Scj-5" value="" style="shape=mxgraph.cisco.routers.router;sketch=0;html=1;pointerEvents=1;dashed=0;fillColor=#036897;strokeColor=#ffffff;strokeWidth=2;verticalLabelPosition=bottom;verticalAlign=top;align=center;outlineConnect=0;" parent="1" vertex="1">
          <mxGeometry x="386.5" y="260" width="78" height="53" as="geometry" />
        </mxCell>
        <mxCell id="-uE5Le_ZGrrqWHCV-Scj-6" value="" style="endArrow=none;html=1;rounded=0;exitX=0.5;exitY=0;exitDx=0;exitDy=0;exitPerimeter=0;" parent="1" edge="1">
          <mxGeometry width="50" height="50" relative="1" as="geometry">
            <mxPoint x="425" y="250" as="sourcePoint" />
            <mxPoint x="425" y="200" as="targetPoint" />
          </mxGeometry>
        </mxCell>
        <mxCell id="-uE5Le_ZGrrqWHCV-Scj-7" value="WAN" style="text;html=1;align=center;verticalAlign=middle;resizable=0;points=[];autosize=1;strokeColor=none;fillColor=none;" parent="1" vertex="1">
          <mxGeometry x="425.5" y="230" width="50" height="30" as="geometry" />
        </mxCell>
        <mxCell id="-uE5Le_ZGrrqWHCV-Scj-8" value="Starlink Router in 3e closet" style="text;html=1;align=center;verticalAlign=middle;resizable=0;points=[];autosize=1;strokeColor=none;fillColor=none;fontSize=18;fontStyle=1" parent="1" vertex="1">
          <mxGeometry x="480" y="268" width="240" height="40" as="geometry" />
        </mxCell>
        <mxCell id="-uE5Le_ZGrrqWHCV-Scj-10" value="" style="endArrow=none;html=1;rounded=0;entryX=0.5;entryY=1;entryDx=0;entryDy=0;entryPerimeter=0;exitX=0.5;exitY=0;exitDx=0;exitDy=0;exitPerimeter=0;strokeWidth=4;strokeColor=#6c8ebf;fillColor=#dae8fc;" parent="1" target="-uE5Le_ZGrrqWHCV-Scj-5" edge="1">
          <mxGeometry width="50" height="50" relative="1" as="geometry">
            <mxPoint x="425.5" y="380" as="sourcePoint" />
            <mxPoint x="450.5" y="310" as="targetPoint" />
          </mxGeometry>
        </mxCell>
        <mxCell id="-uE5Le_ZGrrqWHCV-Scj-11" value="sw-clt-hq-3e" style="text;html=1;align=center;verticalAlign=middle;resizable=0;points=[];autosize=1;strokeColor=none;fillColor=none;fontFamily=Helvetica;fontSize=18;fontColor=default;fontStyle=1;" parent="1" vertex="1">
          <mxGeometry x="490" y="385" width="120" height="40" as="geometry" />
        </mxCell>
        <mxCell id="-uE5Le_ZGrrqWHCV-Scj-12" value="LAN Port VLAN 2902 Gateway&amp;nbsp;129.222.248.1" style="text;html=1;align=center;verticalAlign=middle;resizable=0;points=[];autosize=1;strokeColor=#d6b656;fillColor=#fff2cc;" parent="1" vertex="1">
          <mxGeometry x="435" y="313" width="270" height="30" as="geometry" />
        </mxCell>
        <mxCell id="-uE5Le_ZGrrqWHCV-Scj-26" value="" style="endArrow=none;html=1;rounded=0;textShadow=0;strokeWidth=10;fillColor=#f8cecc;strokeColor=#b85450;entryDx=0;entryDy=0;entryPerimeter=0;" parent="1" edge="1">
          <mxGeometry width="50" height="50" relative="1" as="geometry">
            <mxPoint x="463.5" y="570" as="sourcePoint" />
            <mxPoint x="463.845652173913" y="500" as="targetPoint" />
          </mxGeometry>
        </mxCell>
        <mxCell id="-uE5Le_ZGrrqWHCV-Scj-13" value="ge-2/2/1 -- VLAN 2902" style="text;html=1;align=center;verticalAlign=middle;resizable=0;points=[];autosize=1;strokeColor=none;fillColor=none;" parent="1" vertex="1">
          <mxGeometry x="460.5" y="350" width="140" height="30" as="geometry" />
        </mxCell>
        <mxCell id="-uE5Le_ZGrrqWHCV-Scj-19" value="" style="endArrow=none;html=1;rounded=0;textShadow=0;strokeWidth=10;fillColor=#f8cecc;strokeColor=#b85450;" parent="1" edge="1">
          <mxGeometry width="50" height="50" relative="1" as="geometry">
            <mxPoint x="463.4966666666668" y="470" as="sourcePoint" />
            <mxPoint x="463.72" y="400" as="targetPoint" />
          </mxGeometry>
        </mxCell>
        <mxCell id="-uE5Le_ZGrrqWHCV-Scj-16" value="" style="shape=mxgraph.cisco.switches.layer_3_switch;sketch=0;html=1;pointerEvents=1;dashed=0;fillColor=#036897;strokeColor=#ffffff;strokeWidth=2;verticalLabelPosition=bottom;verticalAlign=top;align=center;outlineConnect=0;" parent="1" vertex="1">
          <mxGeometry x="375" y="560" width="101" height="100" as="geometry" />
        </mxCell>
        <mxCell id="-uE5Le_ZGrrqWHCV-Scj-17" value="" style="shape=mxgraph.cisco.switches.workgroup_switch;sketch=0;html=1;pointerEvents=1;dashed=0;fillColor=#036897;strokeColor=#ffffff;strokeWidth=2;verticalLabelPosition=bottom;verticalAlign=top;align=center;outlineConnect=0;" parent="1" vertex="1">
          <mxGeometry x="369.5" y="380" width="101" height="50" as="geometry" />
        </mxCell>
        <mxCell id="-uE5Le_ZGrrqWHCV-Scj-20" value="ae0 -- Trunk" style="text;html=1;align=center;verticalAlign=middle;resizable=0;points=[];autosize=1;strokeColor=none;fillColor=none;" parent="1" vertex="1">
          <mxGeometry x="380.5" y="430" width="90" height="30" as="geometry" />
        </mxCell>
        <mxCell id="-uE5Le_ZGrrqWHCV-Scj-23" value="&lt;font style=&quot;font-size: 18px;&quot;&gt;sw-clt-hq-sr-core&lt;/font&gt;" style="text;html=1;align=center;verticalAlign=middle;resizable=0;points=[];autosize=1;strokeColor=none;fillColor=none;fontStyle=1" parent="1" vertex="1">
          <mxGeometry x="490" y="590" width="160" height="40" as="geometry" />
        </mxCell>
        <mxCell id="-uE5Le_ZGrrqWHCV-Scj-24" value="ae52 -- Trunk" style="text;html=1;align=center;verticalAlign=middle;resizable=0;points=[];autosize=1;strokeColor=none;fillColor=none;" parent="1" vertex="1">
          <mxGeometry x="380" y="520" width="90" height="30" as="geometry" />
        </mxCell>
        <mxCell id="-uE5Le_ZGrrqWHCV-Scj-22" value="VLAN_2902" style="text;html=1;align=center;verticalAlign=middle;resizable=0;points=[];autosize=1;strokeColor=none;fillColor=none;" parent="1" vertex="1">
          <mxGeometry x="414.5" y="470" width="90" height="30" as="geometry" />
        </mxCell>
        <mxCell id="-uE5Le_ZGrrqWHCV-Scj-52" value="" style="edgeStyle=orthogonalEdgeStyle;rounded=0;orthogonalLoop=1;jettySize=auto;html=1;shape=link;" parent="1" source="-uE5Le_ZGrrqWHCV-Scj-38" target="-uE5Le_ZGrrqWHCV-Scj-49" edge="1">
          <mxGeometry relative="1" as="geometry" />
        </mxCell>
        <mxCell id="-uE5Le_ZGrrqWHCV-Scj-38" value="" style="shape=mxgraph.cisco.security.router_firewall;sketch=0;html=1;pointerEvents=1;dashed=0;fillColor=#036897;strokeColor=#ffffff;strokeWidth=2;verticalLabelPosition=bottom;verticalAlign=top;align=center;outlineConnect=0;" parent="1" vertex="1">
          <mxGeometry x="254" y="820" width="121" height="92" as="geometry" />
        </mxCell>
        <mxCell id="-uE5Le_ZGrrqWHCV-Scj-39" value="xe-0/0/5&lt;div&gt;xe-1/0/5&lt;/div&gt;" style="text;html=1;align=center;verticalAlign=middle;resizable=0;points=[];autosize=1;strokeColor=none;fillColor=none;" parent="1" vertex="1">
          <mxGeometry x="465" y="653" width="70" height="40" as="geometry" />
        </mxCell>
        <mxCell id="-uE5Le_ZGrrqWHCV-Scj-40" value="Ethernet 1/6" style="text;html=1;align=center;verticalAlign=middle;resizable=0;points=[];autosize=1;strokeColor=none;fillColor=none;" parent="1" vertex="1">
          <mxGeometry x="525" y="780" width="90" height="30" as="geometry" />
        </mxCell>
        <mxCell id="-uE5Le_ZGrrqWHCV-Scj-41" value="Ethernet 1/20" style="text;html=1;align=center;verticalAlign=middle;resizable=0;points=[];autosize=1;strokeColor=none;fillColor=none;" parent="1" vertex="1">
          <mxGeometry x="200" y="790" width="100" height="30" as="geometry" />
        </mxCell>
        <mxCell id="-uE5Le_ZGrrqWHCV-Scj-42" value="" style="endArrow=none;html=1;rounded=0;entryX=0.5;entryY=1;entryDx=0;entryDy=0;entryPerimeter=0;exitX=0.5;exitY=0;exitDx=0;exitDy=0;exitPerimeter=0;strokeWidth=4;strokeColor=#6c8ebf;fillColor=#dae8fc;" parent="1" edge="1">
          <mxGeometry width="50" height="50" relative="1" as="geometry">
            <mxPoint x="45" y="217" as="sourcePoint" />
            <mxPoint x="45.5" y="150" as="targetPoint" />
          </mxGeometry>
        </mxCell>
        <mxCell id="-uE5Le_ZGrrqWHCV-Scj-43" value="Access Traffic / Untagged" style="text;html=1;align=center;verticalAlign=middle;resizable=0;points=[];autosize=1;strokeColor=none;fillColor=none;" parent="1" vertex="1">
          <mxGeometry x="45" y="170" width="160" height="30" as="geometry" />
        </mxCell>
        <mxCell id="-uE5Le_ZGrrqWHCV-Scj-44" value="" style="endArrow=none;html=1;rounded=0;textShadow=0;strokeWidth=10;fillColor=#fff2cc;strokeColor=#d6b656;" parent="1" edge="1">
          <mxGeometry width="50" height="50" relative="1" as="geometry">
            <mxPoint x="44.99666666666678" y="300" as="sourcePoint" />
            <mxPoint x="45.22000000000003" y="230" as="targetPoint" />
          </mxGeometry>
        </mxCell>
        <mxCell id="-uE5Le_ZGrrqWHCV-Scj-45" value="Internal Traffic / Tagged" style="text;html=1;align=center;verticalAlign=middle;resizable=0;points=[];autosize=1;strokeColor=none;fillColor=none;" parent="1" vertex="1">
          <mxGeometry x="45" y="250" width="150" height="30" as="geometry" />
        </mxCell>
        <mxCell id="-uE5Le_ZGrrqWHCV-Scj-46" value="" style="endArrow=none;html=1;rounded=0;textShadow=0;strokeWidth=10;fillColor=#f8cecc;strokeColor=#b85450;entryDx=0;entryDy=0;entryPerimeter=0;" parent="1" edge="1">
          <mxGeometry width="50" height="50" relative="1" as="geometry">
            <mxPoint x="45" y="390" as="sourcePoint" />
            <mxPoint x="45.34565217391298" y="320" as="targetPoint" />
          </mxGeometry>
        </mxCell>
        <mxCell id="-uE5Le_ZGrrqWHCV-Scj-47" value="External Traffic / Tagged" style="text;html=1;align=center;verticalAlign=middle;resizable=0;points=[];autosize=1;strokeColor=none;fillColor=none;" parent="1" vertex="1">
          <mxGeometry x="50" y="340" width="150" height="30" as="geometry" />
        </mxCell>
        <mxCell id="-uE5Le_ZGrrqWHCV-Scj-48" value="Logical Representation of FW-03" style="text;html=1;align=center;verticalAlign=middle;resizable=0;points=[];autosize=1;strokeColor=none;fillColor=none;fontSize=18;fontStyle=1" parent="1" vertex="1">
          <mxGeometry x="275" y="965" width="290" height="40" as="geometry" />
        </mxCell>
        <mxCell id="-uE5Le_ZGrrqWHCV-Scj-49" value="" style="shape=mxgraph.cisco.security.router_firewall;sketch=0;html=1;pointerEvents=1;dashed=0;fillColor=#036897;strokeColor=#ffffff;strokeWidth=2;verticalLabelPosition=bottom;verticalAlign=top;align=center;outlineConnect=0;" parent="1" vertex="1">
          <mxGeometry x="464.5" y="820" width="121" height="92" as="geometry" />
        </mxCell>
        <mxCell id="-uE5Le_ZGrrqWHCV-Scj-51" value="&lt;b&gt;&lt;u&gt;KEY&lt;/u&gt;&lt;/b&gt;" style="text;html=1;align=center;verticalAlign=middle;resizable=0;points=[];autosize=1;strokeColor=none;fillColor=none;" parent="1" vertex="1">
          <mxGeometry x="95" y="135" width="50" height="30" as="geometry" />
        </mxCell>
        <mxCell id="-uE5Le_ZGrrqWHCV-Scj-53" value="Firewall Router" style="text;html=1;align=center;verticalAlign=middle;resizable=0;points=[];autosize=1;strokeColor=none;fillColor=none;" parent="1" vertex="1">
          <mxGeometry x="254" y="912" width="100" height="30" as="geometry" />
        </mxCell>
        <mxCell id="-uE5Le_ZGrrqWHCV-Scj-54" value="Internet Router" style="text;html=1;align=center;verticalAlign=middle;resizable=0;points=[];autosize=1;strokeColor=none;fillColor=none;" parent="1" vertex="1">
          <mxGeometry x="475" y="912" width="100" height="30" as="geometry" />
        </mxCell>
        <mxCell id="y4mF-L7IRQNC0i0vL3nd-3" value="&lt;span style=&quot;text-wrap-mode: nowrap;&quot;&gt;VLAN 2902 DHCP Address 129.222.248.111/24&lt;/span&gt;" style="text;html=1;align=center;verticalAlign=middle;whiteSpace=wrap;rounded=0;fillColor=#fff2cc;strokeColor=#d6b656;" vertex="1" parent="1">
          <mxGeometry x="585.5" y="810" width="264.5" height="30" as="geometry" />
        </mxCell>
        <mxCell id="y4mF-L7IRQNC0i0vL3nd-4" value="" style="endArrow=none;html=1;rounded=0;entryX=0.5;entryY=1;entryDx=0;entryDy=0;entryPerimeter=0;strokeWidth=4;strokeColor=#6c8ebf;fillColor=#dae8fc;" edge="1" parent="1" source="-uE5Le_ZGrrqWHCV-Scj-37">
          <mxGeometry width="50" height="50" relative="1" as="geometry">
            <mxPoint x="455" y="690" as="sourcePoint" />
            <mxPoint x="454.5" y="660" as="targetPoint" />
          </mxGeometry>
        </mxCell>
        <mxCell id="y4mF-L7IRQNC0i0vL3nd-5" value="" style="endArrow=none;html=1;rounded=0;entryX=0.5;entryY=1;entryDx=0;entryDy=0;entryPerimeter=0;exitX=0.5;exitY=0;exitDx=0;exitDy=0;exitPerimeter=0;strokeWidth=4;strokeColor=#6c8ebf;fillColor=#dae8fc;" edge="1" parent="1" source="-uE5Le_ZGrrqWHCV-Scj-49">
          <mxGeometry width="50" height="50" relative="1" as="geometry">
            <mxPoint x="454" y="790" as="sourcePoint" />
            <mxPoint x="454.5" y="723" as="targetPoint" />
          </mxGeometry>
        </mxCell>
      </root>
    </mxGraphModel>
  </diagram>
  <diagram id="6v1iujSIV3sugGXWr_4A" name="Starlink Tunnels">
    <mxGraphModel dx="1434" dy="746" grid="1" gridSize="10" guides="1" tooltips="1" connect="1" arrows="1" fold="1" page="1" pageScale="1" pageWidth="850" pageHeight="1100" math="0" shadow="0">
      <root>
        <mxCell id="0" />
        <mxCell id="1" parent="0" />
        <mxCell id="v22vJzCq4A_8DP3WkvIT-1" value="" style="rounded=1;whiteSpace=wrap;html=1;fillColor=#e1d5e7;strokeColor=#9673a6;" vertex="1" parent="1">
          <mxGeometry x="120" y="780" width="600" height="230" as="geometry" />
        </mxCell>
        <mxCell id="v22vJzCq4A_8DP3WkvIT-9" value="" style="fontColor=#0066CC;verticalAlign=top;verticalLabelPosition=bottom;labelPosition=center;align=center;html=1;outlineConnect=0;fillColor=#CCCCCC;strokeColor=#6881B3;gradientColor=none;gradientDirection=north;strokeWidth=2;shape=mxgraph.networks.satellite_dish;" vertex="1" parent="1">
          <mxGeometry x="370" y="350" width="90" height="100" as="geometry" />
        </mxCell>
        <mxCell id="v22vJzCq4A_8DP3WkvIT-10" value="Internet" style="html=1;outlineConnect=0;fillColor=#CCCCCC;strokeColor=#6881B3;gradientColor=none;gradientDirection=north;strokeWidth=2;shape=mxgraph.networks.cloud;fontColor=#ffffff;" vertex="1" parent="1">
          <mxGeometry x="370" y="260" width="90" height="50" as="geometry" />
        </mxCell>
        <mxCell id="v22vJzCq4A_8DP3WkvIT-11" value="" style="endArrow=none;dashed=1;html=1;dashPattern=1 3;strokeWidth=2;rounded=0;entryX=0.5;entryY=1;entryDx=0;entryDy=0;entryPerimeter=0;" edge="1" parent="1" source="v22vJzCq4A_8DP3WkvIT-9" target="v22vJzCq4A_8DP3WkvIT-10">
          <mxGeometry width="50" height="50" relative="1" as="geometry">
            <mxPoint x="390" y="560" as="sourcePoint" />
            <mxPoint x="440" y="510" as="targetPoint" />
          </mxGeometry>
        </mxCell>
        <mxCell id="v22vJzCq4A_8DP3WkvIT-12" value="HQ Dish" style="text;html=1;align=center;verticalAlign=middle;resizable=0;points=[];autosize=1;strokeColor=none;fillColor=none;fontStyle=1;fontSize=18;" vertex="1" parent="1">
          <mxGeometry x="480" y="385" width="90" height="40" as="geometry" />
        </mxCell>
        <mxCell id="v22vJzCq4A_8DP3WkvIT-13" value="" style="shape=mxgraph.cisco.routers.router;sketch=0;html=1;pointerEvents=1;dashed=0;fillColor=#036897;strokeColor=#ffffff;strokeWidth=2;verticalLabelPosition=bottom;verticalAlign=top;align=center;outlineConnect=0;" vertex="1" parent="1">
          <mxGeometry x="376.5" y="510" width="78" height="53" as="geometry" />
        </mxCell>
        <mxCell id="v22vJzCq4A_8DP3WkvIT-14" value="" style="endArrow=none;html=1;rounded=0;exitX=0.5;exitY=0;exitDx=0;exitDy=0;exitPerimeter=0;" edge="1" parent="1">
          <mxGeometry width="50" height="50" relative="1" as="geometry">
            <mxPoint x="415" y="500" as="sourcePoint" />
            <mxPoint x="415" y="450" as="targetPoint" />
          </mxGeometry>
        </mxCell>
        <mxCell id="v22vJzCq4A_8DP3WkvIT-15" value="WAN" style="text;html=1;align=center;verticalAlign=middle;resizable=0;points=[];autosize=1;strokeColor=none;fillColor=none;" vertex="1" parent="1">
          <mxGeometry x="415.5" y="480" width="50" height="30" as="geometry" />
        </mxCell>
        <mxCell id="v22vJzCq4A_8DP3WkvIT-16" value="Starlink Router in 3e closet" style="text;html=1;align=center;verticalAlign=middle;resizable=0;points=[];autosize=1;strokeColor=none;fillColor=none;fontSize=18;fontStyle=1" vertex="1" parent="1">
          <mxGeometry x="470" y="518" width="240" height="40" as="geometry" />
        </mxCell>
        <mxCell id="v22vJzCq4A_8DP3WkvIT-29" value="" style="edgeStyle=orthogonalEdgeStyle;rounded=0;orthogonalLoop=1;jettySize=auto;html=1;shape=link;" edge="1" parent="1" source="v22vJzCq4A_8DP3WkvIT-30" target="v22vJzCq4A_8DP3WkvIT-35">
          <mxGeometry relative="1" as="geometry" />
        </mxCell>
        <mxCell id="v22vJzCq4A_8DP3WkvIT-30" value="" style="shape=mxgraph.cisco.security.router_firewall;sketch=0;html=1;pointerEvents=1;dashed=0;fillColor=#036897;strokeColor=#ffffff;strokeWidth=2;verticalLabelPosition=bottom;verticalAlign=top;align=center;outlineConnect=0;" vertex="1" parent="1">
          <mxGeometry x="254" y="820" width="121" height="92" as="geometry" />
        </mxCell>
        <mxCell id="v22vJzCq4A_8DP3WkvIT-34" value="Logical Representation of FW-03" style="text;html=1;align=center;verticalAlign=middle;resizable=0;points=[];autosize=1;strokeColor=none;fillColor=none;fontSize=18;fontStyle=1" vertex="1" parent="1">
          <mxGeometry x="275" y="965" width="290" height="40" as="geometry" />
        </mxCell>
        <mxCell id="v22vJzCq4A_8DP3WkvIT-35" value="" style="shape=mxgraph.cisco.security.router_firewall;sketch=0;html=1;pointerEvents=1;dashed=0;fillColor=#036897;strokeColor=#ffffff;strokeWidth=2;verticalLabelPosition=bottom;verticalAlign=top;align=center;outlineConnect=0;" vertex="1" parent="1">
          <mxGeometry x="464.5" y="820" width="121" height="92" as="geometry" />
        </mxCell>
        <mxCell id="v22vJzCq4A_8DP3WkvIT-37" value="Firewall Router" style="text;html=1;align=center;verticalAlign=middle;resizable=0;points=[];autosize=1;strokeColor=none;fillColor=none;" vertex="1" parent="1">
          <mxGeometry x="254" y="912" width="100" height="30" as="geometry" />
        </mxCell>
        <mxCell id="v22vJzCq4A_8DP3WkvIT-38" value="VPN Primary Router" style="text;html=1;align=center;verticalAlign=middle;resizable=0;points=[];autosize=1;strokeColor=none;fillColor=none;" vertex="1" parent="1">
          <mxGeometry x="460" y="912" width="130" height="30" as="geometry" />
        </mxCell>
        <mxCell id="v22vJzCq4A_8DP3WkvIT-42" value="Internal Network&amp;nbsp;&lt;div&gt;L2&lt;/div&gt;" style="ellipse;shape=cloud;whiteSpace=wrap;html=1;" vertex="1" parent="1">
          <mxGeometry x="355" y="590" width="120" height="80" as="geometry" />
        </mxCell>
        <mxCell id="v22vJzCq4A_8DP3WkvIT-45" value="" style="endArrow=none;html=1;rounded=0;" edge="1" parent="1">
          <mxGeometry width="50" height="50" relative="1" as="geometry">
            <mxPoint x="416" y="600" as="sourcePoint" />
            <mxPoint x="415.5" y="563" as="targetPoint" />
          </mxGeometry>
        </mxCell>
        <mxCell id="v22vJzCq4A_8DP3WkvIT-46" value="LAN" style="text;html=1;align=center;verticalAlign=middle;resizable=0;points=[];autosize=1;strokeColor=none;fillColor=none;" vertex="1" parent="1">
          <mxGeometry x="425" y="558" width="50" height="30" as="geometry" />
        </mxCell>
        <mxCell id="v22vJzCq4A_8DP3WkvIT-47" value="Tunnels" style="html=1;outlineConnect=0;fillColor=#dae8fc;strokeColor=#6c8ebf;gradientDirection=north;strokeWidth=2;shape=mxgraph.networks.bus;gradientDirection=north;perimeter=backbonePerimeter;backboneSize=20;" vertex="1" parent="1">
          <mxGeometry x="170" y="395" width="190" height="20" as="geometry" />
        </mxCell>
        <mxCell id="v22vJzCq4A_8DP3WkvIT-48" value="&lt;p style=&quot;margin: 10px 0px 0px; padding: 0px; color: rgb(23, 43, 77); font-family: -apple-system, BlinkMacSystemFont, &amp;quot;Segoe UI&amp;quot;, Roboto, &amp;quot;Noto Sans&amp;quot;, Ubuntu, &amp;quot;Droid Sans&amp;quot;, &amp;quot;Helvetica Neue&amp;quot;, sans-serif; font-size: 14px; text-align: left; text-wrap-mode: wrap; background-color: rgb(255, 255, 255);&quot;&gt;&lt;br&gt;&lt;/p&gt;&lt;div&gt;&lt;div&gt;sp-openstack&lt;/div&gt;&lt;div&gt;openstack-clt&lt;/div&gt;&lt;div&gt;openstack-den&lt;/div&gt;&lt;div&gt;sp-backup&lt;/div&gt;&lt;div&gt;bgtc-backup&lt;/div&gt;&lt;div&gt;brb-backup&lt;/div&gt;&lt;div&gt;dndr-backup&lt;/div&gt;&lt;/div&gt;&lt;div&gt;&lt;br&gt;&lt;/div&gt;" style="text;html=1;align=center;verticalAlign=middle;resizable=0;points=[];autosize=1;strokeColor=none;fillColor=none;" vertex="1" parent="1">
          <mxGeometry x="60" y="320" width="100" height="160" as="geometry" />
        </mxCell>
        <mxCell id="v22vJzCq4A_8DP3WkvIT-49" value="Tunnels" style="html=1;outlineConnect=0;fillColor=#dae8fc;strokeColor=#6c8ebf;gradientDirection=north;strokeWidth=2;shape=mxgraph.networks.bus;gradientDirection=north;perimeter=backbonePerimeter;backboneSize=20;rotation=-60;" vertex="1" parent="1">
          <mxGeometry x="264.5" y="730" width="190" height="20" as="geometry" />
        </mxCell>
        <mxCell id="v22vJzCq4A_8DP3WkvIT-50" value="BGARC Tunnel" style="html=1;outlineConnect=0;fillColor=#f8cecc;strokeColor=#b85450;gradientDirection=north;strokeWidth=2;shape=mxgraph.networks.bus;gradientDirection=north;perimeter=backbonePerimeter;backboneSize=20;rotation=60;" vertex="1" parent="1">
          <mxGeometry x="395.5" y="730" width="190" height="20" as="geometry" />
        </mxCell>
        <mxCell id="v22vJzCq4A_8DP3WkvIT-51" value="BGARC Tunnel" style="html=1;outlineConnect=0;fillColor=#f8cecc;strokeColor=#b85450;gradientDirection=north;strokeWidth=2;shape=mxgraph.networks.bus;gradientDirection=north;perimeter=backbonePerimeter;backboneSize=20;rotation=-30;" vertex="1" parent="1">
          <mxGeometry x="440" y="350" width="190" height="20" as="geometry" />
        </mxCell>
        <mxCell id="v22vJzCq4A_8DP3WkvIT-52" value="BG Archive ISP" style="text;html=1;align=center;verticalAlign=middle;resizable=0;points=[];autosize=1;strokeColor=none;fillColor=none;" vertex="1" parent="1">
          <mxGeometry x="620" y="298" width="110" height="30" as="geometry" />
        </mxCell>
      </root>
    </mxGraphModel>
  </diagram>
</mxfile>
